<?xml version="1.0" standalone="no"?>
<!DOCTYPE svg PUBLIC "-//W3C//DTD SVG 20010904//EN"
 "http://www.w3.org/TR/2001/REC-SVG-20010904/DTD/svg10.dtd">
<svg version="1.0" xmlns="http://www.w3.org/2000/svg"
 width="700.000000pt" height="700.000000pt" viewBox="0 0 700.000000 700.000000"
 preserveAspectRatio="xMidYMid meet">
<metadata>
Created by potrace 1.14, written by Peter Selinger 2001-2017
</metadata>
<g transform="translate(0.000000,700.000000) scale(0.100000,-0.100000)"
fill="#000000" stroke="none">
<path d="M3348 5985 c-2 -2 -41 -6 -88 -9 -92 -7 -115 -10 -230 -32 -41 -8
-85 -16 -97 -18 -69 -14 -272 -76 -353 -109 -14 -5 -31 -11 -38 -13 -38 -7
-331 -162 -427 -224 -474 -310 -818 -755 -980 -1270 -52 -165 -81 -309 -100
-500 -2 -14 -4 -50 -4 -80 l-1 -55 -63 -34 c-80 -44 -166 -131 -199 -201 -44
-94 -50 -160 -34 -385 4 -49 9 -117 11 -150 3 -33 7 -100 10 -150 12 -201 23
-370 30 -480 3 -38 8 -106 11 -150 3 -44 7 -105 9 -135 2 -30 6 -102 10 -160
3 -58 8 -116 10 -130 2 -14 6 -70 10 -125 15 -248 47 -332 166 -439 94 -85
240 -135 352 -121 190 24 366 170 411 341 18 67 16 181 -9 529 -3 50 -8 109
-10 133 l-4 42 38 0 c57 0 135 27 183 63 131 100 159 274 65 414 -59 89 -177
142 -283 129 l-44 -5 -1 52 c-1 29 -2 63 -3 77 -2 14 -6 79 -10 145 -19 310
-24 356 -46 428 -25 79 -63 144 -120 203 -86 90 -176 131 -301 138 -55 3 -64
5 -63 22 6 108 22 230 49 365 8 43 54 200 78 263 l21 60 17 -67 c26 -103 67
-154 144 -180 44 -15 125 -14 166 2 40 15 98 69 118 110 10 20 33 86 50 146
60 207 169 392 313 532 67 65 83 79 163 135 179 124 485 238 775 287 36 6 79
13 95 16 46 8 221 18 310 18 92 1 297 -11 317 -17 7 -3 37 -7 67 -11 175 -19
490 -106 630 -174 25 -11 50 -21 57 -21 7 0 14 -3 16 -7 2 -5 21 -17 43 -28
154 -75 358 -255 454 -400 82 -124 125 -222 186 -422 50 -162 280 -208 393
-79 18 21 40 55 50 77 9 21 20 39 23 39 7 0 39 -79 63 -155 39 -124 71 -309
75 -426 l2 -67 -33 -6 c-64 -12 -73 -14 -123 -31 -177 -60 -290 -181 -324
-345 -13 -65 -18 -113 -26 -235 -7 -127 -15 -249 -20 -325 -2 -36 -4 -79 -5
-97 0 -31 -1 -31 -32 -22 -46 13 -135 11 -177 -3 -220 -75 -281 -358 -111
-512 63 -57 122 -79 206 -79 71 0 72 0 68 -26 -2 -14 -6 -69 -9 -121 -2 -52
-8 -151 -12 -220 -11 -193 -8 -298 11 -363 43 -144 179 -270 337 -310 195 -51
435 64 527 253 47 95 50 118 77 560 7 120 13 204 20 305 8 132 15 236 20 315
8 139 15 235 20 310 40 537 39 573 -21 691 -33 65 -132 165 -197 198 -65 33
-60 21 -72 171 -6 74 -42 297 -50 310 -2 4 -7 22 -10 41 -3 19 -26 94 -51 167
-90 267 -234 527 -413 743 -67 81 -266 277 -346 340 -307 243 -656 411 -1025
492 -129 29 -165 35 -310 53 -55 6 -396 14 -402 9z"/>
<path d="M2900 3688 c-59 -22 -98 -90 -86 -152 4 -21 32 -62 79 -115 285 -325
419 -672 411 -1064 -8 -411 -146 -756 -416 -1042 -61 -64 -82 -107 -75 -152
16 -96 104 -144 188 -102 112 56 323 346 424 581 15 35 34 78 42 96 l15 34 48
-112 c85 -196 193 -365 331 -514 111 -120 162 -133 233 -63 51 51 65 100 42
146 -9 16 -49 68 -90 116 -182 213 -301 445 -354 696 -50 232 -42 539 18 739
6 19 13 42 15 51 6 30 58 153 93 224 33 67 131 225 155 250 7 7 28 32 47 56
19 24 52 62 72 85 82 90 77 183 -13 233 -72 41 -125 16 -233 -106 -95 -107
-176 -229 -287 -431 l-84 -153 -14 33 c-53 121 -129 267 -177 339 -90 134
-211 277 -265 312 -31 20 -87 27 -119 15z"/>
<path d="M2502 3360 c-58 -27 -88 -93 -71 -155 6 -22 38 -65 82 -113 212 -226
300 -454 293 -752 -7 -255 -102 -489 -273 -675 -115 -126 -128 -188 -54 -259
50 -48 139 -33 212 35 85 81 192 225 249 339 39 78 85 212 104 305 9 44 19 91
22 105 3 14 7 84 9 155 9 337 -105 648 -333 904 -103 115 -166 144 -240 111z"/>
<path d="M4365 3365 c-104 -36 -292 -279 -380 -490 -58 -138 -99 -342 -99
-485 0 -59 12 -203 18 -221 3 -8 7 -30 10 -49 3 -19 8 -44 11 -55 2 -11 9 -39
15 -62 41 -171 168 -390 308 -535 63 -65 106 -89 161 -90 49 0 74 14 100 56
39 63 23 122 -61 213 -197 214 -294 459 -291 733 3 279 94 498 297 715 76 81
95 126 78 183 -22 74 -94 111 -167 87z"/>
<path d="M340 3119 c-49 -22 -96 -70 -156 -160 -59 -89 -81 -141 -104 -246
-56 -248 -46 -558 26 -848 64 -257 136 -358 291 -409 111 -37 209 -13 277 65
59 69 63 109 41 434 -2 28 -6 100 -9 160 -4 61 -8 146 -11 190 -3 44 -7 123
-9 175 -20 396 -27 466 -51 523 -43 103 -193 162 -295 116z"/>
<path d="M6512 3125 c-84 -26 -132 -72 -156 -150 -17 -56 -23 -128 -41 -485
-4 -69 -8 -154 -10 -190 -2 -36 -7 -119 -11 -185 -3 -66 -8 -140 -9 -165 -2
-25 -7 -108 -10 -186 -7 -127 -5 -145 12 -185 65 -145 233 -182 396 -87 111
65 165 167 221 419 43 194 54 298 51 474 -3 128 -8 194 -20 256 -3 13 -8 38
-10 54 -3 17 -8 38 -11 47 -3 9 -7 27 -9 40 -16 82 -154 284 -224 326 -47 28
-112 34 -169 17z"/>
<path d="M2105 3032 c-60 -38 -85 -106 -60 -166 8 -17 43 -59 78 -92 120 -113
174 -222 184 -370 12 -170 -37 -286 -184 -440 -46 -47 -83 -93 -84 -102 0 -9
-2 -25 -4 -36 -9 -48 48 -122 102 -132 50 -9 111 18 181 82 119 107 202 244
241 394 26 102 23 323 -7 420 -46 151 -101 246 -199 343 -110 109 -185 139
-248 99z"/>
<path d="M4734 3030 c-45 -23 -130 -100 -186 -170 -59 -74 -128 -211 -144
-285 -49 -236 -9 -459 119 -661 74 -117 206 -224 278 -224 61 0 114 50 124
116 9 55 -1 71 -101 175 -117 123 -160 213 -171 359 -11 156 44 287 175 420
86 86 102 111 102 158 0 58 -73 132 -130 132 -14 0 -43 -9 -66 -20z"/>
</g>
</svg>
