<svg version="1.2" xmlns="http://www.w3.org/2000/svg" viewBox="0 0 422 303" width="422" height="303">
	<title>RP</title>
	<style>
		tspan { white-space:pre } 
		.s0 { fill: #666667 } 
		.s1 { fill: #f0b23e } 
	</style>
	<g id="Layer 1">
		<g id="&lt;Group&gt;">
			<g id="&lt;Group&gt;">
				<g id="&lt;Group&gt;">
					<path id="&lt;Path&gt;" class="s0" d="m40.8 228.7c0.6 10 1.3 21.7 2 33.4 0.3 5.3-2.1 10.4-6.6 13.1-5.4 3.3-10.4 2.6-16.3 0.1-9.1-4-11.8-11.7-14.1-19.9-5.4-19.9-7-40-1.6-60 1.7-6.1 5.9-11.8 10-16.8 3.5-4.4 9-5.8 14.7-3.8 5.6 1.9 8.8 6.2 9.4 12 0.8 8 1.2 16.1 1.6 24.1 0.4 5.4 0.6 10.7 0.9 17.8z"/>
				</g>
				<g id="&lt;Group&gt;">
					<path id="&lt;Path&gt;" class="s0" d="m382.7 210.9c0.5-8 0.8-16.1 1.6-24.1 0.6-5.8 3.8-10.1 9.5-12 5.6-2 11.1-0.6 14.7 3.8 4 5 8.3 10.7 9.9 16.8 5.4 20 3.8 40.1-1.6 60-2.2 8.2-5 15.9-14.1 19.9-5.6 2.4-10.5 3.1-15.7 0.2-5.2-2.9-7.5-7.5-7.2-13.4 0.7-11.7 1.4-23.4 2-33.4 0.4-7.1 0.6-12.4 0.9-17.8z"/>
				</g>
				<g id="&lt;Group&gt;">
					<path id="&lt;Path&gt;" class="s0" d="m380.2 169.8c-2.5 35-4.6 70.1-6.9 105.1-1 14.8-11 25.8-25.8 28-12 1.8-25.2-6.1-29.6-18.2-1.3-3.5-1.8-7.4-1.7-11.1 0.4-11.7 1.3-23.4 2-35.1 7.9-2 13.8-9.2 13.8-17.8 0-7.7-4.7-14.2-11.4-17q0 0 0 0c0.8-11.7 1.6-23.9 2.3-35.5 1.2-17.5 10.9-27.1 30.2-29.8 0.6-11-4-32.8-8.6-40.2q0 0 0 0c-0.7 1.7-1.2 3.1-1.8 4.4-2.5 5.2-7.8 8.3-13.5 8-6.1-0.3-11.5-3.9-13-9.5-8.5-33.6-32.1-51.2-63.7-59.7-32.8-8.9-65.6-8.4-97.5 4.1-24.6 9.5-41.5 26.7-48 52.9-2.4 9.7-7.6 14.1-15.9 13.6-7.6-0.5-12-5.5-13.3-15.9q0 0 0 0c-5.7 14.1-8.4 28.2-9.2 43.3q0 0 0 0c7.5-0.5 14.3 1.1 20 6 7.5 6.5 10.7 15 11.3 24.7q1.1 16.6 2.1 33.1c-7.7 2.2-13.4 9.3-13.4 17.8 0 9.2 6.8 16.8 15.5 18.2q0.1 0.1 0.1 0.2 0.1 0 0.2 0 0 0 0 0c0.8 11.4 1.7 22.7 2.3 34.1 0.4 9.2-3.3 17-9.6 22.1-6.1 5.6-14.5 8.6-22.3 7.4-5.8-0.9-10.7-3.2-14.6-6.5-6.2-4.5-9.7-11-10.4-19.7-2.4-28.2-4-56.5-5.9-84.7-0.4-7-0.8-13.9-1.4-20.9-1.1-12.9 3.9-22.4 15.4-28.4 1-0.5 2-1 2.9-1.4 2.3-81 70.5-139.1 146.3-140.9 81.1-2 151.4 58.7 154.2 139.6 1.4 0.7 3 1.4 4.5 2.4 9.9 6.3 15.3 14.9 14.4 27.3z"/>
				</g>
				<g id="&lt;Group&gt;">
					<g id="&lt;Group&gt;">
						<path id="&lt;Path&gt;" class="s1" d="m210.1 256.7c-5.7 16.1-14.1 29.3-25.2 40.8-5.4 5.7-12.6 4.8-15-1.6-1.5-4.1 0.3-7.1 3-9.9 13.8-14.2 22.5-31 25.5-50.7 4.3-29-3.3-54.7-22.5-76.9-1.2-1.5-2.6-2.8-3.9-4.2-3.4-3.9-3.5-8.7-0.2-12 3.4-3.3 8.5-3.2 12.4 0.7 10.5 10.7 18.6 22.9 24.2 36.8 0.5 1.3 1 2.5 1.4 3.4 4.6-8.3 8.8-16.8 13.9-24.7 3.5-5.5 8-10.3 12.4-15.2 3.9-4.2 9.1-4.4 12.6-0.9 3.3 3.4 3.1 8.2-0.8 12.3-19 19.9-28.2 43.5-26.9 71 1.1 23.3 10.3 43.3 26.1 60.3 1.8 2 3.9 5 3.6 7.3-0.3 2.6-2.5 5.8-4.8 7.3-3.2 2.1-6.7 0.6-9.5-2.1-9.9-9.9-17.6-21.2-23.1-34.1-1-2.2-1.9-4.3-3.2-7.6z"/>
					</g>
					<g id="&lt;Group&gt;">
						<path id="&lt;Path&gt;" class="s1" d="m185.8 217.4c-0.3 25.7-8.4 45.2-24.9 60.9-2.1 2-6.4 3.2-9.2 2.7-2.2-0.5-5.2-4.2-5.4-6.6-0.1-2.8 1.8-6.3 3.9-8.5 12.5-12.6 19.1-27.7 19.1-45.3 0-17.9-6.7-33.1-19.6-45.6-3.4-3.3-5.1-6.8-2.7-11.4 2.7-5 9-5.6 13.8-1 11.6 11 19.3 24.3 22.8 39.9 1.3 5.8 1.8 11.9 2.2 14.9z"/>
					</g>
					<g id="&lt;Group&gt;">
						<path id="&lt;Path&gt;" class="s1" d="m138.9 220.6c0-9.4-3.5-17.3-10.3-23.7-1.1-1.1-2.4-2.1-3.5-3.2-3.6-3.4-4-7.9-1.1-11.5 2.8-3.5 7.5-4 11.5-1.1 10.5 7.5 16.9 17.8 19.1 30.3 3.2 19-2.5 35.1-17.6 47.5-4.9 4.1-9.9 4-13 0.1-3.3-4-2.4-8.5 2.5-12.8 8.6-7.5 12.4-15.3 12.4-25.6z"/>
					</g>
					<g id="&lt;Group&gt;">
						<path id="&lt;Path&gt;" class="s1" d="m264.9 217.8c0.5-12.9 6.5-25.7 18.5-35.6 5-4 9.8-3.9 13.1 0.3 3.2 4 2.3 8.8-2.6 12.7-16.8 13.5-16.8 37.5 0.1 51.1 4.7 3.8 5.7 8.4 2.7 12.4-3.2 4.2-8.1 4.5-13 0.6-11.8-9-18.9-23.9-18.8-41.5z"/>
					</g>
					<g id="&lt;Group&gt;">
						<path id="&lt;Path&gt;" class="s1" d="m125.2 220.9c0 10.3-8.3 18.6-18.5 18.6-10.3 0-18.6-8.3-18.6-18.6 0-10.2 8.3-18.5 18.6-18.5 10.2 0 18.5 8.3 18.5 18.5z"/>
					</g>
					<g id="&lt;Group&gt;">
						<path id="&lt;Path&gt;" class="s1" d="m236.9 202.5c3.5-15.6 11.2-28.9 22.8-39.9 4.8-4.6 11.1-4 13.8 1 2.4 4.6 0.7 8.1-2.7 11.4-12.9 12.5-19.6 27.7-19.6 45.6 0 17.6 6.6 32.7 19.1 45.3 2.1 2.2 4 5.7 3.9 8.5-0.2 2.4-3.1 6.1-5.4 6.6-2.8 0.5-7.1-0.7-9.2-2.7-16.5-15.7-24.6-35.2-24.9-60.9 0.4-3 0.9-9.1 2.2-14.9z"/>
					</g>
					<g id="&lt;Group&gt;">
						<path id="&lt;Path&gt;" class="s1" d="m332.3 220.7c0 10.2-8.3 18.5-18.5 18.5-10.2 0-18.5-8.3-18.5-18.5 0-10.3 8.3-18.6 18.5-18.6 10.2 0 18.5 8.3 18.5 18.6z"/>
					</g>
				</g>
			</g>
		</g>
	</g>
</svg>